<svg width="159" height="45" viewBox="0 0 159 45" fill="none" xmlns="http://www.w3.org/2000/svg">
<path fill-rule="evenodd" clip-rule="evenodd" d="M0 6.42857C0 2.87817 2.87817 0 6.42857 0H38.5714C42.1218 0 45 2.87817 45 6.42857V38.5714C45 42.1218 42.1218 45 38.5714 45H6.42857C2.87817 45 0 42.1218 0 38.5714V6.42857ZM7.06473 10.4221V35.3571H13.6881V20.8441H13.8829L19.4349 35.1623H23.4284L28.9803 20.9415H29.1751V35.3571H35.7985V10.4221H27.3732L21.5777 24.5454H21.2855L15.4901 10.4221H7.06473ZM21.4286 12.8571C23.7955 12.8571 25.7143 10.9384 25.7143 8.57143C25.7143 6.20449 23.7955 4.28571 21.4286 4.28571C19.0616 4.28571 17.1429 6.20449 17.1429 8.57143C17.1429 10.9384 19.0616 12.8571 21.4286 12.8571Z" fill="#005FEC"/>
<path d="M56.7703 32.3437H60.3858V23.0153C60.3858 21.1277 61.6442 19.8493 63.2023 19.8493C64.7304 19.8493 65.7791 20.878 65.7791 22.456V32.3437H69.3246V22.7756C69.3246 21.0478 70.3534 19.8493 72.1012 19.8493C73.5594 19.8493 74.7179 20.7082 74.7179 22.6058V32.3437H78.3434V22.0465C78.3434 18.6208 76.3659 16.803 73.5494 16.803C71.3222 16.803 69.6243 17.9017 68.9451 19.6096H68.7853C68.196 17.8717 66.7079 16.803 64.6405 16.803C62.583 16.803 61.0449 17.8617 60.4057 19.6096H60.226V17.0028H56.7703V32.3437Z" fill="#18216D"/>
<path d="M88.8029 32.6433C92.3784 32.6433 94.8354 30.8955 95.4746 28.2288L92.0988 27.8493C91.6094 29.1477 90.4109 29.8268 88.8528 29.8268C86.5157 29.8268 84.9677 28.2888 84.9377 25.662H95.6244V24.5534C95.6244 19.1701 92.3884 16.803 88.6131 16.803C84.2186 16.803 81.3522 20.029 81.3522 24.7631C81.3522 29.5771 84.1787 32.6433 88.8029 32.6433ZM84.9477 23.2251C85.0576 21.2675 86.5058 19.6195 88.6631 19.6195C90.7405 19.6195 92.1387 21.1377 92.1587 23.2251H84.9477Z" fill="#18216D"/>
<path d="M106.344 17.0028H103.317V13.3274H99.7018V17.0028H97.5245V19.7993H99.7018V28.3287C99.6819 31.2151 101.779 32.6333 104.496 32.5534C105.525 32.5235 106.234 32.3237 106.623 32.1939L106.014 29.3674C105.814 29.4173 105.405 29.5072 104.955 29.5072C104.046 29.5072 103.317 29.1876 103.317 27.7294V19.7993H106.344V17.0028Z" fill="#18216D"/>
<path d="M117.028 17.0028H114.002V13.3274H110.386V17.0028H108.209V19.7993H110.386V28.3287C110.366 31.2151 112.463 32.6333 115.18 32.5534C116.209 32.5235 116.918 32.3237 117.307 32.1939L116.698 29.3674C116.498 29.4173 116.089 29.5072 115.639 29.5072C114.731 29.5072 114.002 29.1876 114.002 27.7294V19.7993H117.028V17.0028Z" fill="#18216D"/>
<path d="M120.052 32.3437H123.667V17.0028H120.052V32.3437ZM121.869 14.8255C123.018 14.8255 123.957 13.9466 123.957 12.8679C123.957 11.7793 123.018 10.9004 121.869 10.9004C120.711 10.9004 119.772 11.7793 119.772 12.8679C119.772 13.9466 120.711 14.8255 121.869 14.8255Z" fill="#18216D"/>
<path d="M131 23.3549C131 21.1377 132.339 19.8592 134.246 19.8592C136.114 19.8592 137.233 21.0877 137.233 23.1352V32.3437H140.848V22.5759C140.858 18.9004 138.761 16.803 135.595 16.803C133.298 16.803 131.719 17.9017 131.02 19.6096H130.841V17.0028H127.385V32.3437H131V23.3549Z" fill="#18216D"/>
<path d="M151.195 38.4161C155.34 38.4161 158.396 36.5185 158.396 32.5934V17.0028H154.831V19.5396H154.631C154.082 18.431 152.933 16.803 150.226 16.803C146.681 16.803 143.894 19.5796 143.894 24.6233C143.894 29.6271 146.681 32.124 150.216 32.124C152.843 32.124 154.072 30.7157 154.631 29.5871H154.811V32.4935C154.811 34.7507 153.313 35.6796 151.255 35.6796C149.078 35.6796 148.119 34.6508 147.68 33.752L144.424 34.541C145.083 36.6883 147.29 38.4161 151.195 38.4161ZM151.225 29.2875C148.838 29.2875 147.58 27.4298 147.58 24.6033C147.58 21.8168 148.818 19.7694 151.225 19.7694C153.552 19.7694 154.831 21.697 154.831 24.6033C154.831 27.5297 153.532 29.2875 151.225 29.2875Z" fill="#18216D"/>
</svg>
